<svg width="28" height="25" viewBox="0 0 28 25" fill="none" xmlns="http://www.w3.org/2000/svg">
<path d="M2.162 10.761C2.18303 11.087 2.24786 11.407 2.3174 11.6909L2.29795 11.7246L2.40515 12.1247C3.42917 15.9464 7.36129 18.2166 11.183 17.1926C11.867 17.0093 12.4696 16.7119 13.0093 16.3734L21.187 21.1514L21.187 21.1514L21.1915 21.154C22.848 22.1104 25.0323 21.5252 25.9887 19.8686L25.9887 19.8686C26.498 18.9864 26.5148 18.0317 26.2961 17.2154C26.0709 16.3751 25.5469 15.5874 24.7253 15.0845L24.7122 15.0765L24.6988 15.0688L16.4761 10.3781C16.5009 9.74881 16.4544 9.07896 16.2683 8.38452C15.2443 4.56283 11.3122 2.29262 7.49047 3.31664C7.47856 3.31983 7.46652 3.32306 7.45435 3.32631C7.09719 3.4219 6.63355 3.54598 6.20532 3.75772L4.53036 4.58589L6.14854 5.52015L8.72042 7.00503L9.63132 10.4045L6.2318 11.3154L3.65992 9.83057L2.04174 8.89631L2.162 10.761ZM22.6981 18.1795C22.6781 18.105 22.6911 18.0447 22.717 17.9999C22.7429 17.955 22.7886 17.9136 22.8631 17.8936C22.9376 17.8737 22.9979 17.8867 23.0428 17.9126C23.0876 17.9385 23.129 17.9842 23.149 18.0587C23.169 18.1332 23.156 18.1935 23.1301 18.2383C23.1042 18.2832 23.0585 18.3246 22.984 18.3446C22.9095 18.3645 22.8492 18.3515 22.8043 18.3256C22.7595 18.2997 22.7181 18.254 22.6981 18.1795Z" fill="url(#paint0_linear_6_22)" stroke="black" stroke-width="2"/>
<defs>
<linearGradient id="paint0_linear_6_22" x1="4.32957" y1="15.443" x2="23.4156" y2="10.3289" gradientUnits="userSpaceOnUse">
<stop stop-color="#A79565"/>
<stop offset="1" stop-color="#CEC688"/>
</linearGradient>
</defs>
</svg>
